<svg xmlns="http://www.w3.org/2000/svg" version="1.1"   width="1500" height="1042" viewBox="0 0 1500 1042"><g transform="matrix(1,0,0,1,-0.030472249593685774,-1.6806451612903857)"><svg viewBox="0 0 357 248" data-background-color="#ffffff" preserveAspectRatio="xMidYMid meet" height="1042" width="1500" xmlns="http://www.w3.org/2000/svg" xmlns:xlink="http://www.w3.org/1999/xlink"><g id="tight-bounds" transform="matrix(1,0,0,1,0.007252395403298806,0.4000000000000057)"><svg viewBox="0 0 356.9854952091934 247.2" height="247.2" width="356.9854952091934"><g><svg viewBox="0 0 397.4976 275.25321907664295" height="247.2" width="356.9854952091934"><g><rect width="397.4976" height="4.785580400206986" x="0" y="148.50142117803003" fill="#3c2c32" opacity="1" stroke-width="0" stroke="transparent" fill-opacity="1" class="rect-yte-0" data-fill-palette-color="primary" rx="1%" id="yte-0" data-palette-color="#3c2c32"></rect></g><g><rect width="397.4976" height="4.785580400206986" x="0" y="159.55085026960742" fill="#3c2c32" opacity="1" stroke-width="0" stroke="transparent" fill-opacity="1" class="rect-yte-1" data-fill-palette-color="primary" rx="1%" id="yte-1" data-palette-color="#3c2c32"></rect></g><g transform="matrix(1,0,0,1,0.9887999999999693,176.8641280525552)"><svg viewBox="0 0 395.52000000000004 98.38909102408772" height="98.38909102408772" width="395.52000000000004"><g id="textblocktransform"><svg viewBox="0 0 395.52000000000004 98.38909102408772" height="98.38909102408772" width="395.52000000000004" id="textblock"><g><svg viewBox="0 0 395.52000000000004 53.06637431480032" height="53.06637431480032" width="395.52000000000004"><g transform="matrix(1,0,0,1,0,0)"><svg width="395.52000000000004" viewBox="1 -39.6 383.07 51.400000000000006" height="53.06637431480032" data-palette-color="#3c2c32"><path d="M56.15-38.9L56.15-30.7 53.65-30.7 53.65-8.2 56.15-8.2 56.15 0 37.25 0 37.25-8.2 39.65-8.2 39.65-25.7 31.15 0 23.75 0 15-25.45 15-8.2 17.4-8.2 17.4 0 1 0 1-8.2 3.5-8.2 3.5-30.7 1-30.7 1-38.9 23.9-38.9 29.1-23.3 34.1-38.9 56.15-38.9ZM88.75-8.2L90.95-8.2 90.95 0 77.25 0 77.25-3.9Q73.65 0.7 68.25 0.7L68.25 0.7Q64.1 0.7 62.02-1.9 59.95-4.5 59.95-9.05L59.95-9.05 59.95-19.6 57.75-19.6 57.75-27.8 71.45-27.8 71.45-11.4Q71.45-9.75 72.17-8.97 72.9-8.2 74.35-8.2L74.35-8.2Q75.8-8.2 76.52-8.97 77.25-9.75 77.25-11.4L77.25-11.4 77.25-19.6 74.55-19.6 74.55-27.8 88.75-27.8 88.75-8.2ZM107 11.8Q103.4 11.8 100.12 11.3 96.85 10.8 95.05 10.15L95.05 10.15 95.05 1.95Q100.35 2.9 104.55 2.9L104.55 2.9Q107.4 2.9 108.67 2.02 109.95 1.15 109.95-1.25L109.95-1.25 109.95-3.4Q108.7-1.8 106.72-0.55 104.75 0.7 102.2 0.7L102.2 0.7Q97.1 0.7 94.52-3.1 91.95-6.9 91.95-13.9L91.95-13.9Q91.95-20.9 94.52-24.7 97.1-28.5 102.2-28.5L102.2-28.5Q104.75-28.5 106.72-27.25 108.7-26 109.95-24.4L109.95-24.4 109.95-27.8 123.65-27.8 123.65-19.6 121.45-19.6 121.45-2Q121.45 5.25 117.85 8.53 114.25 11.8 107 11.8L107 11.8ZM107.05-8.2Q108.5-8.2 109.22-8.97 109.95-9.75 109.95-11.4L109.95-11.4 109.95-16.4Q109.95-18.05 109.22-18.82 108.5-19.6 107.05-19.6L107.05-19.6Q105.6-19.6 104.87-18.82 104.15-18.05 104.15-16.4L104.15-16.4 104.15-11.4Q104.15-9.75 104.87-8.97 105.6-8.2 107.05-8.2L107.05-8.2ZM156.64 0.7Q148.59 0.7 144.27-2.27 139.94-5.25 139.94-10.5L139.94-10.5Q139.94-14 142.04-16.57 144.14-19.15 147.29-20.45L147.29-20.45Q144.49-22.45 143.09-24.55 141.69-26.65 141.69-29.45L141.69-29.45Q141.69-32.65 143.74-34.95 145.79-37.25 149.42-38.43 153.04-39.6 157.69-39.6L157.69-39.6Q162.39-39.6 166.29-38.45 170.19-37.3 172.09-35.9L172.09-35.9 172.09-26.3 161.59-26.3 161.59-27.2Q161.59-29 160.74-29.85 159.89-30.7 158.19-30.7L158.19-30.7Q155.04-30.7 155.04-28.25L155.04-28.25Q155.04-27.3 155.82-26.45 156.59-25.6 158.29-24.3L158.29-24.3 166.44-18.15Q166.64-19.2 166.64-20.55L166.64-20.55 166.64-21.45 178.69-21.45 178.69-13.1 175.79-13.1 175.34-11.45 179.84-8.05 173.74 0 170.09-2.8Q165.09 0.7 156.64 0.7L156.64 0.7ZM157.94-8.2Q160.39-8.2 161.94-9.1L161.94-9.1 155.59-14Q154.64-13.55 154.09-12.78 153.54-12 153.54-11.05L153.54-11.05Q153.54-9.55 154.67-8.88 155.79-8.2 157.94-8.2L157.94-8.2ZM251.69-38.9L251.69-30.7 249.19-30.7 249.19-8.2 251.69-8.2 251.69 0 232.79 0 232.79-8.2 235.19-8.2 235.19-25.7 226.69 0 219.29 0 210.54-25.45 210.54-8.2 212.94-8.2 212.94 0 196.54 0 196.54-8.2 199.04-8.2 199.04-30.7 196.54-30.7 196.54-38.9 219.44-38.9 224.64-23.3 229.64-38.9 251.69-38.9ZM266.18-30.55L255.98-30.55 255.98-38.9 266.18-38.9 266.18-30.55ZM269.48 0L253.58 0 253.58-8.2 255.78-8.2 255.78-19.6 253.58-19.6 253.58-27.8 267.28-27.8 267.28-8.2 269.48-8.2 269.48 0ZM301.88-8.2L304.08-8.2 304.08 0 288.28 0 288.28-8.2 290.38-8.2 290.38-16.4Q290.38-18.05 289.68-18.82 288.98-19.6 287.58-19.6L287.58-19.6Q284.58-19.6 284.58-16.4L284.58-16.4 284.58-8.2 286.68-8.2 286.68 0 270.88 0 270.88-8.2 273.08-8.2 273.08-19.6 270.88-19.6 270.88-27.8 284.58-27.8 284.58-23.9Q288.18-28.5 293.58-28.5L293.58-28.5Q297.73-28.5 299.81-25.9 301.88-23.3 301.88-18.75L301.88-18.75 301.88-8.2ZM320.33 11.8Q316.73 11.8 313.45 11.3 310.18 10.8 308.38 10.15L308.38 10.15 308.38 1.95Q313.68 2.9 317.88 2.9L317.88 2.9Q320.73 2.9 322 2.02 323.28 1.15 323.28-1.25L323.28-1.25 323.28-3.4Q322.03-1.8 320.05-0.55 318.08 0.7 315.53 0.7L315.53 0.7Q310.43 0.7 307.85-3.1 305.28-6.9 305.28-13.9L305.28-13.9Q305.28-20.9 307.85-24.7 310.43-28.5 315.53-28.5L315.53-28.5Q318.08-28.5 320.05-27.25 322.03-26 323.28-24.4L323.28-24.4 323.28-27.8 336.98-27.8 336.98-19.6 334.78-19.6 334.78-2Q334.78 5.25 331.18 8.53 327.58 11.8 320.33 11.8L320.33 11.8ZM320.38-8.2Q321.83-8.2 322.55-8.97 323.28-9.75 323.28-11.4L323.28-11.4 323.28-16.4Q323.28-18.05 322.55-18.82 321.83-19.6 320.38-19.6L320.38-19.6Q318.93-19.6 318.2-18.82 317.48-18.05 317.48-16.4L317.48-16.4 317.48-11.4Q317.48-9.75 318.2-8.97 318.93-8.2 320.38-8.2L320.38-8.2ZM354.28 0.05L338.38 0.05 338.38-8.2 340.58-8.2 340.58-30.7 338.38-30.7 338.38-38.9 352.08-38.9 352.08-8.2 354.28-8.2 354.28 0.05ZM370.77 0.7Q363.67 0.7 359.67-3.03 355.67-6.75 355.67-13.9L355.67-13.9Q355.67-21.05 359.67-24.78 363.67-28.5 370.77-28.5L370.77-28.5Q377.82-28.5 380.95-24.83 384.07-21.15 384.07-15.7L384.07-15.7 384.07-12.1 367.87-12.1 367.87-11.8Q367.87-9.95 368.97-9.08 370.07-8.2 372.62-8.2L372.62-8.2Q375.67-8.2 378.42-8.65 381.17-9.1 383.22-9.8L383.22-9.8 383.22-1.8Q381.47-0.85 378.1-0.08 374.72 0.7 370.77 0.7L370.77 0.7ZM367.87-17.6L373.67-17.6 373.67-18.2Q373.67-19.9 372.95-20.65 372.22-21.4 370.77-21.4L370.77-21.4Q369.32-21.4 368.6-20.63 367.87-19.85 367.87-18.2L367.87-18.2 367.87-17.6Z" opacity="1" transform="matrix(1,0,0,1,0,0)" fill="#3c2c32" class="wordmark-text-0" data-fill-palette-color="primary" id="text-0"></path></svg></g></svg></g><g transform="matrix(1,0,0,1,0,65.59407169754112)"><svg viewBox="0 0 395.52000000000004 32.7950193265466" height="32.7950193265466" width="395.52000000000004"><g transform="matrix(1,0,0,1,0,0)"><svg width="395.52000000000004" viewBox="3.3 -32 505.33 41.9" height="32.7950193265466" data-palette-color="#f9ad59"><path d="M27-32L13.85-11.65 13.5-9.35 12.5 0 8.7 0 10.15-9.35 10.4-11.65 3.3-32 7.25-32 7.6-30.25 12.5-15.7 12.9-15.7 21.95-30.15 22.9-32 27-32ZM38.86-23.3L39.26-23.3Q42.01-22.85 43.39-21 44.76-19.15 44.76-15.7L44.76-15.7Q44.76-11.1 43.46-7.55 42.16-4 39.69-1.93 37.21 0.15 33.81 0.45L33.81 0.45 33.36 0.4Q30.51-0.15 29.14-2 27.76-3.85 27.76-7.45L27.76-7.45Q27.76-11.95 29.11-15.48 30.46-19 32.99-21.05 35.51-23.1 38.86-23.3L38.86-23.3ZM38.21-20.25Q34.81-20.25 33.01-16.8 31.21-13.35 31.21-7.5L31.21-7.5Q31.21-4.9 31.91-3.73 32.61-2.55 34.26-2.55L34.26-2.55Q37.61-2.55 39.41-6.05 41.21-9.55 41.21-15.45L41.21-15.45Q41.21-18 40.51-19.13 39.81-20.25 38.21-20.25L38.21-20.25ZM67.77-22.8L71.47-23.15 68.97-5.45 68.77-0.15 64.97 0.2 66.52-11 66.17-11Q63.72-6.8 61.7-4.15 59.67-1.5 57.47 0.2L57.47 0.2 56.92 0.2Q55.17-0.2 54.1-1.3 53.02-2.4 53.07-4.1L53.07-4.1 53.12-4.75 55.17-17.65 55.57-22.9 59.27-23.2 56.62-6.45 56.52-5.4Q56.47-4.65 56.77-4.28 57.07-3.9 57.57-3.9L57.57-3.9Q59.02-3.9 61.67-7.55 64.32-11.2 67.52-17.95L67.52-17.95 67.77-22.8ZM93.93-23.1L95.13-23 94.38-18 94.08-17.85 93.63-17.9Q91.23-17.55 89.03-14.63 86.83-11.7 83.93-4.5L83.93-4.5 83.73-0.15 79.93 0.2 82.53-17.95 82.78-22.8 86.43-23.15 84.93-12.15 85.33-12.15Q87.13-15.8 89.21-18.48 91.28-21.15 93.93-23.1L93.93-23.1ZM143.41-32L142.31 0 138.96 0 139.51-9.75 139.91-26.05 139.61-26.05 128.31-3.7 125.16-3.7 119.86-26.05 119.51-26.05 115.96-10.05 113.86 0 110.66 0 117.86-32 122.11-32 123.11-27.15 127.36-8.6 127.71-8.6 137.06-27.45 139.16-32 143.41-32ZM167.02-22.8L170.72-23.15 168.22-5.45 168.02-0.15 164.22 0.2 165.77-11 165.42-11Q162.97-6.8 160.94-4.15 158.92-1.5 156.72 0.2L156.72 0.2 156.17 0.2Q154.42-0.2 153.34-1.3 152.27-2.4 152.32-4.1L152.32-4.1 152.37-4.75 154.42-17.65 154.82-22.9 158.52-23.2 155.87-6.45 155.77-5.4Q155.72-4.65 156.02-4.28 156.32-3.9 156.82-3.9L156.82-3.9Q158.27-3.9 160.92-7.55 163.57-11.2 166.77-17.95L166.77-17.95 167.02-22.8ZM196.18-23.3L196.68-23 194.23-5.65 193.83-1.9Q193.33 1.75 191.68 4.42 190.03 7.1 187.56 8.5 185.08 9.9 182.23 9.9L182.23 9.9Q179.03 9.9 176.93 8.08 174.83 6.25 174.23 2.9L174.23 2.9 174.38 2.5 181.43-1.9 181.48-2.35Q180.43-3.3 179.93-4.73 179.43-6.15 179.43-8.3L179.43-8.3Q179.43-11.9 180.71-15.1 181.98-18.3 184.48-20.48 186.98-22.65 190.48-23.2L190.48-23.2 190.73-23.2 193.83-22.1 196.18-23.3ZM189.78-20.2Q186.48-20.2 184.63-17.15 182.78-14.1 182.78-9.55L182.78-9.55Q182.78-7.1 183.26-5.9 183.73-4.7 184.18-4.7L184.18-4.7Q184.68-4.7 186.01-6.25 187.33-7.8 189.11-10.68 190.88-13.55 192.63-17.3L192.63-17.3 192.73-17.95 192.83-19.1 189.78-20.2ZM183.03 7.05Q185.88 7.05 187.86 5 189.83 2.95 190.38-0.9L190.38-0.9 191.68-10.5 191.18-10.5Q187.63-4.25 183.78-1.2L183.78-1.2 178.68 2.6Q178.23 3 178.23 3.45L178.23 3.45Q178.28 4.8 179.58 5.93 180.88 7.05 183.03 7.05L183.03 7.05ZM207.84-4.2Q209.89-2.9 209.89-0.9L209.89-0.9Q209.89 2.3 205.29 5.65L205.29 5.65 204.04 4.45 204.04 4.15Q206.79 1.95 206.79-0.25L206.79-0.25Q206.79-1.55 205.24-2.55L205.24-2.55 205.24-2.95Q206.44-3.75 207.84-4.2L207.84-4.2ZM255.51-32L242.36-11.65 242.01-9.35 241.01 0 237.21 0 238.66-9.35 238.91-11.65 231.81-32 235.76-32 236.11-30.25 241.01-15.7 241.41-15.7 250.46-30.15 251.41-32 255.51-32ZM267.38-23.3L267.78-23.3Q270.53-22.85 271.9-21 273.28-19.15 273.28-15.7L273.28-15.7Q273.28-11.1 271.98-7.55 270.68-4 268.2-1.93 265.73 0.15 262.33 0.45L262.33 0.45 261.88 0.4Q259.03-0.15 257.65-2 256.28-3.85 256.28-7.45L256.28-7.45Q256.28-11.95 257.63-15.48 258.98-19 261.5-21.05 264.03-23.1 267.38-23.3L267.38-23.3ZM266.73-20.25Q263.33-20.25 261.53-16.8 259.73-13.35 259.73-7.5L259.73-7.5Q259.73-4.9 260.43-3.73 261.13-2.55 262.78-2.55L262.78-2.55Q266.13-2.55 267.93-6.05 269.73-9.55 269.73-15.45L269.73-15.45Q269.73-18 269.03-19.13 268.33-20.25 266.73-20.25L266.73-20.25ZM296.29-22.8L299.99-23.15 297.49-5.45 297.29-0.15 293.49 0.2 295.04-11 294.69-11Q292.24-6.8 290.21-4.15 288.19-1.5 285.99 0.2L285.99 0.2 285.44 0.2Q283.69-0.2 282.61-1.3 281.54-2.4 281.59-4.1L281.59-4.1 281.64-4.75 283.69-17.65 284.09-22.9 287.79-23.2 285.14-6.45 285.04-5.4Q284.99-4.65 285.29-4.28 285.59-3.9 286.09-3.9L286.09-3.9Q287.54-3.9 290.19-7.55 292.84-11.2 296.04-17.95L296.04-17.95 296.29-22.8ZM322.45-23.1L323.65-23 322.9-18 322.6-17.85 322.15-17.9Q319.75-17.55 317.55-14.63 315.35-11.7 312.45-4.5L312.45-4.5 312.25-0.15 308.45 0.2 311.05-17.95 311.3-22.8 314.95-23.15 313.45-12.15 313.85-12.15Q315.65-15.8 317.72-18.48 319.8-21.15 322.45-23.1L322.45-23.1ZM371.92-32L370.82 0 367.47 0 368.02-9.75 368.42-26.05 368.12-26.05 356.82-3.7 353.67-3.7 348.37-26.05 348.02-26.05 344.47-10.05 342.37 0 339.17 0 346.37-32 350.62-32 351.62-27.15 355.87-8.6 356.22-8.6 365.57-27.45 367.67-32 371.92-32ZM391.03-23.3L391.43-23.3Q394.18-22.85 395.56-21 396.93-19.15 396.93-15.7L396.93-15.7Q396.93-11.1 395.63-7.55 394.33-4 391.86-1.93 389.38 0.15 385.98 0.45L385.98 0.45 385.53 0.4Q382.68-0.15 381.31-2 379.93-3.85 379.93-7.45L379.93-7.45Q379.93-11.95 381.28-15.48 382.63-19 385.16-21.05 387.68-23.1 391.03-23.3L391.03-23.3ZM390.38-20.25Q386.98-20.25 385.18-16.8 383.38-13.35 383.38-7.5L383.38-7.5Q383.38-4.9 384.08-3.73 384.78-2.55 386.43-2.55L386.43-2.55Q389.78-2.55 391.58-6.05 393.38-9.55 393.38-15.45L393.38-15.45Q393.38-18 392.68-19.13 391.98-20.25 390.38-20.25L390.38-20.25ZM431.9-23.25Q433.65-22.85 434.72-21.73 435.8-20.6 435.75-18.9L435.75-18.9 435.7-18.25 433.65-5.4 433.35-0.15 429.5 0.2 432.2-16.9 432.25-17.55Q432.3-18.25 432.02-18.68 431.75-19.1 431.25-19.1L431.25-19.1Q429.8-19.1 427.1-15.35 424.4-11.6 421.1-4.7L421.1-4.7 420.85-0.15 417 0.2 419.75-16.9 419.8-17.55Q419.8-19.1 418.75-19.1L418.75-19.1Q417.3-19.1 414.67-15.45 412.05-11.8 408.8-5.05L408.8-5.05 408.55-0.15 404.75 0.2 407.35-17.95 407.6-22.8 411.3-23.15 409.7-11.9 410.15-11.9Q412.7-16.25 414.7-18.93 416.7-21.6 418.85-23.25L418.85-23.25 419.4-23.25Q421.15-22.85 422.22-21.73 423.3-20.6 423.25-18.9L423.25-18.9 423.2-18.25 422.2-11.9 422.65-11.9Q425.1-16.2 427.15-18.88 429.2-21.55 431.35-23.25L431.35-23.25 431.9-23.25ZM456.76-7L457.36-6.95 458.56-5.4Q456.96-2.95 455.06-1.55 453.16-0.15 450.76 0.35L450.76 0.35 450.16 0.35Q446.96-0.05 445.48-2 444.01-3.95 444.01-7.8L444.01-7.8Q444.01-12.2 445.43-15.7 446.86-19.2 449.33-21.2 451.81-23.2 455.01-23.3L455.01-23.3 455.41-23.25Q457.56-23 458.68-21.85 459.81-20.7 459.81-18.8L459.81-18.8Q459.81-15.8 456.71-13.28 453.61-10.75 447.51-8.85L447.51-8.85Q447.51-5.7 448.33-4.25 449.16-2.8 450.91-2.8L450.91-2.8Q452.41-2.8 453.78-3.8 455.16-4.8 456.76-7L456.76-7ZM454.21-20.6Q451.66-20.6 449.88-18.13 448.11-15.65 447.66-11.5L447.66-11.5Q451.96-12.9 454.18-14.68 456.41-16.45 456.41-18.55L456.41-18.55Q456.41-20.6 454.21-20.6L454.21-20.6ZM481.87-23.25Q483.62-22.85 484.69-21.73 485.77-20.6 485.72-18.9L485.72-18.9 485.67-18.25 483.62-5.4 483.32-0.15 479.47 0.2 482.22-16.9 482.27-17.55Q482.27-19.1 481.22-19.1L481.22-19.1Q479.77-19.1 477.14-15.45 474.52-11.8 471.27-5.05L471.27-5.05 471.02-0.15 467.22 0.2 469.82-17.95 470.07-22.8 473.77-23.15 472.17-11.9 472.62-11.9Q475.17-16.25 477.17-18.93 479.17-21.6 481.32-23.25L481.32-23.25 481.87-23.25ZM501.83-20L499.48-5.55 499.38-4.75Q499.38-4 499.73-3.55 500.08-3.1 500.73-3.1L500.73-3.1Q502.53-3.1 505.08-7.1L505.08-7.1 505.53-7.1 506.58-5.75Q504.83-2.85 503.43-1.5 502.03-0.15 500.28 0.35L500.28 0.35Q498.28 0.35 497.15-0.75 496.03-1.85 496.03-3.85L496.03-3.85 496.13-5.05 498.28-17.95 498.53-20 495.18-20 494.93-20.25 495.18-22.5 498.88-22.5 499.58-28.05 503.03-29.65 503.33-29.35 502.23-22.5 508.33-22.5 508.63-22.1 508.38-20 501.83-20Z" opacity="1" transform="matrix(1,0,0,1,0,0)" fill="#f9ad59" class="slogan-text-1" data-fill-palette-color="secondary" id="text-1"></path></svg></g></svg></g></svg></g></svg></g><g transform="matrix(1,0,0,1,159.18520545590366,0)"><svg viewBox="0 0 79.12718908819265 135.97372379528923" height="135.97372379528923" width="79.12718908819265"><g><svg xmlns="http://www.w3.org/2000/svg" xmlns:xlink="http://www.w3.org/1999/xlink" version="1.1" x="0" y="0" viewBox="24.902 4 58.193 100" enable-background="new 0 0 108 108" xml:space="preserve" height="135.97372379528923" width="79.12718908819265" class="icon-icon-0" data-fill-palette-color="accent" id="icon-0"><g fill="#fbb168" data-fill-palette-color="accent"><path d="M82.822 75.221C82.613 73.692 82.361 72.182 82.004 70.696 81.637 69.214 81.233 67.743 80.691 66.3A30 30 0 0 0 78.779 61.995 17.4 17.4 0 0 0 77.424 59.845 13 13 0 0 0 76.514 58.728 7.5 7.5 0 0 0 75.073 57.499L75.003 57.454 74.974 57.438 74.913 57.409 74.898 57.4C74.951 57.437 74.806 57.341 74.812 57.347L74.763 57.322 74.667 57.275A6.7 6.7 0 0 0 73.462 56.804 6.3 6.3 0 0 0 71.778 56.544 7.3 7.3 0 0 0 68.801 57.136C68.268 57.37 67.785 57.642 67.338 57.933V55.433C67.338 49.84 57.84 47.369 46.12 47.369 34.402 47.369 25.685 50.711 24.902 55.433V95.183C24.902 95.607 24.919 96.009 24.943 96.402 24.973 96.886 25.024 97.34 25.091 97.775 26.464 101.287 35.352 104 46.122 104 56.893 104 65.781 101.287 67.15 97.775 67.218 97.339 67.269 96.886 67.298 96.402 67.323 96.009 67.339 95.607 67.339 95.183V93.93A17.5 17.5 0 0 0 70.975 94.774L71.579 94.846 71.845 94.877 72.273 94.898A9.1 9.1 0 0 0 75.628 94.384 8.9 8.9 0 0 0 78.694 92.544 11.2 11.2 0 0 0 80.743 89.993C81.786 88.223 82.27 86.464 82.628 84.794 82.948 83.112 83.062 81.487 83.095 79.896A41 41 0 0 0 82.822 75.221M64.438 54.916A3.2 3.2 0 0 1 63.975 55.738C63.893 55.847 63.805 55.957 63.709 56.058 61.764 58.046 55.109 59.523 47.137 59.574 46.992 59.576 46.849 59.578 46.703 59.578 46.161 59.578 45.624 59.57 45.095 59.557 37.419 59.369 31.171 57.858 29.539 55.879A3 3 0 0 1 29.357 55.627L29.342 55.606 29.31 55.549A3 3 0 0 1 29.033 54.998C28.712 54.113 28.905 53.15 29.336 52.393 29.069 53.086 28.959 53.856 29.162 54.538 29.769 52.078 37.387 50.132 46.703 50.132 56.094 50.132 63.764 52.109 64.262 54.596 64.528 53.881 64.422 53.052 64.135 52.311 64.566 53.068 64.76 54.032 64.438 54.916M78.121 84.004C77.887 85.361 77.516 86.703 76.881 87.889 76.252 89.075 75.307 90.084 74.09 90.573A5.6 5.6 0 0 1 72.164 90.966C71.484 90.976 70.783 90.946 70.101 90.876A14 14 0 0 1 67.339 90.323V60.455A9.2 9.2 0 0 1 69.466 59.57C70.116 59.396 70.784 59.322 71.429 59.404A3.9 3.9 0 0 1 73.216 60.103C73.687 60.466 74.095 61.05 74.439 61.628 74.787 62.216 75.085 62.841 75.361 63.48 76.439 66.043 77.154 68.775 77.674 71.523 78.182 74.275 78.477 77.074 78.447 79.859 78.441 81.252 78.352 82.643 78.121 84.004" fill="#fbb168" data-fill-palette-color="accent"></path><path d="M32.456 45.153C33.534 42.923 33.692 40.537 33.457 38.266 33.186 35.985 32.489 33.764 31.527 31.639 30.503 29.376 29.723 26.784 29.889 24.148 30.006 21.551 31.209 18.835 33.404 17.551 31.906 19.538 31.494 21.905 31.667 24.139 31.867 26.402 32.598 28.57 33.609 30.719 34.612 33.046 35.306 35.593 35.226 38.198 35.165 40.756 34.338 43.459 32.456 45.153" fill="#fbb168" data-fill-palette-color="accent"></path><path d="M43.032 43.553C44.751 40.473 45.123 36.986 44.849 33.669 44.537 30.33 43.54 27.077 42.153 23.988 40.689 20.77 39.581 17.147 39.739 13.451 39.844 9.809 41.397 5.992 44.39 4 42.094 6.695 41.332 10.163 41.515 13.442 41.723 16.766 42.781 19.964 44.233 23.068 45.663 26.359 46.656 29.938 46.617 33.601 46.595 37.205 45.555 41.009 43.032 43.553" fill="#fbb168" data-fill-palette-color="accent"></path><path d="M55.363 45.438C56.47 43.167 56.64 40.73 56.402 38.408 56.131 36.076 55.418 33.806 54.437 31.636 53.393 29.328 52.596 26.687 52.762 24.001 52.878 21.355 54.097 18.585 56.33 17.268 54.795 19.289 54.366 21.708 54.539 23.992 54.74 26.305 55.486 28.522 56.518 30.718 57.541 33.09 58.25 35.687 58.172 38.342 58.111 40.948 57.275 43.703 55.363 45.438" fill="#fbb168" data-fill-palette-color="accent"></path></g></svg></g></svg></g><g></g></svg></g><defs></defs></svg><rect width="356.9854952091934" height="247.2" fill="none" stroke="none" visibility="hidden"></rect></g></svg></g></svg>